<?xml version="1.0" encoding="UTF-8"?>
<svg id="Layer_1" data-name="Layer 1" xmlns="http://www.w3.org/2000/svg" viewBox="0 0 1000 350.73">
  <defs>
    <style>
      .cls-1 {
        fill: #0005bf;
      }
    </style>
  </defs>
  <circle class="cls-1" cx="107.51" cy="241.36" r="36.65"/>
  <circle class="cls-1" cx="202.76" cy="145.79" r="73.07"/>
  <g>
    <path class="cls-1" d="M326.39,218.7v-54.66h10.38l.77,14.21-1.53-1.53c1.02-3.13,2.5-5.74,4.43-7.82,1.93-2.08,4.23-3.59,6.89-4.54,2.66-.95,5.48-1.42,8.47-1.42,3.86,0,7.34.75,10.44,2.24,3.1,1.49,5.56,3.74,7.38,6.72,1.82,2.99,2.73,6.78,2.73,11.37v35.42h-11.7v-31.81c0-5.39-1.11-9.13-3.33-11.2-2.22-2.08-5.01-3.12-8.36-3.12-2.4,0-4.74.57-7,1.69-2.26,1.13-4.14,2.93-5.63,5.41-1.49,2.48-2.24,5.79-2.24,9.95v29.08h-11.7Z"/>
    <path class="cls-1" d="M417.01,219.8c-5.47,0-10.28-1.13-14.43-3.39-4.15-2.26-7.38-5.52-9.67-9.78-2.3-4.26-3.44-9.35-3.44-15.25s1.15-10.99,3.44-15.25c2.3-4.26,5.48-7.52,9.56-9.78,4.08-2.26,8.71-3.39,13.88-3.39s9.84,1.09,13.55,3.28,6.56,5.18,8.53,8.96c1.97,3.79,2.95,8.09,2.95,12.9,0,1.31-.04,2.55-.11,3.72-.07,1.17-.18,2.19-.33,3.06h-43.94v-8.96h38.81l-5.79,1.75c0-4.96-1.24-8.76-3.72-11.42-2.48-2.66-5.87-3.99-10.17-3.99-3.13,0-5.87.73-8.2,2.19-2.33,1.46-4.12,3.63-5.36,6.5-1.24,2.88-1.86,6.4-1.86,10.55s.66,7.54,1.97,10.38c1.31,2.84,3.17,4.99,5.58,6.45,2.4,1.46,5.25,2.19,8.53,2.19,3.64,0,6.59-.69,8.85-2.08,2.26-1.38,4.04-3.31,5.36-5.79l9.29,4.37c-1.31,2.62-3.08,4.9-5.3,6.83-2.22,1.93-4.86,3.41-7.93,4.43-3.06,1.02-6.41,1.53-10.06,1.53Z"/>
    <path class="cls-1" d="M474.51,219.8c-3.57,0-6.87-.66-9.89-1.97-3.02-1.31-5.45-3.42-7.27-6.34-1.82-2.91-2.73-6.7-2.73-11.37v-36.07h11.7v33.12c0,4.96,1.06,8.36,3.17,10.22,2.11,1.86,5.06,2.79,8.85,2.79,1.82,0,3.59-.31,5.3-.93,1.71-.62,3.26-1.6,4.65-2.95,1.38-1.35,2.46-3.08,3.22-5.19.77-2.11,1.15-4.59,1.15-7.43v-29.62h11.7v54.66h-10.28l-.55-8.85c-1.9,3.43-4.45,5.94-7.65,7.54-3.21,1.6-7,2.4-11.37,2.4Z"/>
    <path class="cls-1" d="M550.59,146.56c7.21,0,12.95,1.82,17.22,5.47,4.26,3.64,6.4,8.64,6.4,14.98s-2.15,11.28-6.45,14.81c-4.3,3.54-10.06,5.3-17.27,5.3l-.55.33h-20.66v31.26h-5.47v-72.15h26.78ZM550.48,182.3c5.83,0,10.29-1.31,13.39-3.94,3.1-2.62,4.65-6.41,4.65-11.37s-1.55-8.76-4.65-11.42c-3.1-2.66-7.56-3.99-13.39-3.99h-21.21v30.72h21.21ZM554.74,183.29l23.28,35.42h-6.45l-21.43-32.36,4.59-3.06Z"/>
    <path class="cls-1" d="M611.59,219.8c-5.03,0-9.51-1.13-13.45-3.39-3.94-2.26-7.02-5.52-9.24-9.78-2.22-4.26-3.33-9.35-3.33-15.25s1.11-10.99,3.33-15.25c2.22-4.26,5.23-7.52,9.02-9.78,3.79-2.26,8.12-3.39,13.01-3.39s9.18,1.09,12.68,3.28,6.19,5.23,8.09,9.13c1.89,3.9,2.84,8.4,2.84,13.5,0,.66-.02,1.29-.05,1.91-.04.62-.09,1.19-.16,1.69h-45.37v-4.92h42.96l-2.73.77c-.07-6.27-1.73-11.26-4.97-14.98-3.24-3.72-7.71-5.58-13.39-5.58-3.94,0-7.4.93-10.38,2.79-2.99,1.86-5.32,4.56-7,8.09-1.68,3.54-2.51,7.78-2.51,12.73s.86,9.11,2.57,12.68c1.71,3.57,4.12,6.29,7.21,8.14,3.1,1.86,6.69,2.79,10.77,2.79s7.85-.91,10.88-2.73c3.02-1.82,5.37-4.33,7.05-7.54l4.37,2.51c-1.31,2.62-3.06,4.86-5.25,6.72-2.19,1.86-4.7,3.3-7.54,4.32s-5.98,1.53-9.4,1.53Z"/>
    <path class="cls-1" d="M682.53,182.74c0-4.74-1.28-8.42-3.83-11.04-2.55-2.62-6.2-3.94-10.93-3.94-4.15,0-7.73.89-10.71,2.68-2.99,1.79-5.21,4.76-6.67,8.91l-4.48-2.84c1.6-4.3,4.28-7.63,8.03-10,3.75-2.37,8.4-3.55,13.94-3.55,4.01,0,7.52.71,10.55,2.13,3.02,1.42,5.37,3.52,7.05,6.29,1.68,2.77,2.51,6.23,2.51,10.38v27.33c0,3.86,1.75,5.79,5.25,5.79,1.53,0,2.84-.25,3.94-.77l-.33,4.37c-1.24.66-2.84.98-4.81.98-1.68,0-3.24-.33-4.7-.98-1.46-.66-2.64-1.75-3.55-3.28-.91-1.53-1.37-3.61-1.37-6.23v-2.95l1.53-.11c-.66,3.13-2.1,5.74-4.32,7.82-2.22,2.08-4.79,3.61-7.71,4.59-2.92.98-5.83,1.48-8.75,1.48-3.43,0-6.49-.55-9.18-1.64-2.7-1.09-4.81-2.68-6.34-4.76-1.53-2.08-2.3-4.65-2.3-7.71,0-4.08,1.37-7.38,4.1-9.89s6.58-4.24,11.53-5.19l22.63-4.48v4.59l-19.9,3.94c-4.3.87-7.51,2.15-9.62,3.83-2.11,1.68-3.17,3.97-3.17,6.89s1.13,5.34,3.39,7.05c2.26,1.71,5.47,2.57,9.62,2.57,2.11,0,4.26-.29,6.45-.87,2.19-.58,4.21-1.51,6.07-2.79,1.86-1.27,3.33-2.88,4.43-4.81,1.09-1.93,1.64-4.28,1.64-7.05v-16.73Z"/>
    <path class="cls-1" d="M712.37,138.91v66.9c0,3.35.58,5.72,1.75,7.1,1.17,1.39,2.99,2.08,5.47,2.08,1.53,0,2.75-.11,3.66-.33.91-.22,1.98-.58,3.23-1.09l-.77,4.81c-.95.44-2.02.78-3.23,1.04-1.2.25-2.53.38-3.99.38-3.86,0-6.76-1.11-8.69-3.33-1.93-2.22-2.9-5.7-2.9-10.44v-67.12h5.47Z"/>
    <path class="cls-1" d="M738.94,153.44c-1.39,0-2.5-.42-3.33-1.26-.84-.84-1.26-1.95-1.26-3.33s.42-2.5,1.26-3.33,1.95-1.26,3.33-1.26,2.5.42,3.33,1.26c.84.84,1.26,1.95,1.26,3.33s-.42,2.5-1.26,3.33-1.95,1.26-3.33,1.26ZM741.67,164.05v54.66h-5.47v-54.66h5.47Z"/>
    <path class="cls-1" d="M789.55,164.05v4.7h-36.84v-4.7h36.84ZM769.11,148.85v55.42c0,3.43.82,6.03,2.46,7.82,1.64,1.79,4.03,2.68,7.16,2.68,2.04,0,3.84-.35,5.41-1.04,1.57-.69,2.97-1.69,4.21-3.01l2.08,4.48c-1.39,1.39-3.13,2.5-5.25,3.33-2.11.84-4.48,1.26-7.11,1.26-2.84,0-5.36-.53-7.54-1.58-2.19-1.06-3.88-2.68-5.08-4.86-1.2-2.19-1.8-4.96-1.8-8.31v-54.66l5.47-1.53Z"/>
    <path class="cls-1" d="M802.88,153.44c-1.39,0-2.5-.42-3.33-1.26-.84-.84-1.26-1.95-1.26-3.33s.42-2.5,1.26-3.33,1.95-1.26,3.33-1.26,2.5.42,3.33,1.26c.84.84,1.26,1.95,1.26,3.33s-.42,2.5-1.26,3.33-1.95,1.26-3.33,1.26ZM805.62,164.05v54.66h-5.47v-54.66h5.47Z"/>
    <path class="cls-1" d="M846.28,219.8c-5.03,0-9.51-1.13-13.45-3.39-3.94-2.26-7.02-5.52-9.24-9.78-2.22-4.26-3.33-9.35-3.33-15.25s1.11-10.99,3.33-15.25c2.22-4.26,5.23-7.52,9.02-9.78,3.79-2.26,8.12-3.39,13.01-3.39s9.18,1.09,12.68,3.28,6.19,5.23,8.09,9.13c1.89,3.9,2.84,8.4,2.84,13.5,0,.66-.02,1.29-.05,1.91-.04.62-.09,1.19-.16,1.69h-45.37v-4.92h42.96l-2.73.77c-.07-6.27-1.73-11.26-4.97-14.98-3.24-3.72-7.71-5.58-13.39-5.58-3.94,0-7.4.93-10.38,2.79-2.99,1.86-5.32,4.56-7,8.09-1.68,3.54-2.51,7.78-2.51,12.73s.86,9.11,2.57,12.68c1.71,3.57,4.12,6.29,7.21,8.14,3.1,1.86,6.69,2.79,10.77,2.79s7.85-.91,10.88-2.73c3.02-1.82,5.37-4.33,7.05-7.54l4.37,2.51c-1.31,2.62-3.06,4.86-5.25,6.72-2.19,1.86-4.7,3.3-7.54,4.32s-5.98,1.53-9.4,1.53Z"/>
    <path class="cls-1" d="M902.25,219.8c-5.54,0-10.44-1.13-14.7-3.39-4.26-2.26-7.27-5.5-9.02-9.73l4.7-3.17c1.31,3.65,3.66,6.47,7.05,8.47,3.39,2.01,7.52,3.01,12.41,3.01s8.58-.95,11.31-2.84c2.73-1.89,4.1-4.41,4.1-7.54,0-2.11-.67-3.95-2.02-5.52-1.35-1.57-3.88-2.75-7.6-3.55l-12.79-2.73c-5.25-1.09-8.98-2.86-11.2-5.3-2.22-2.44-3.33-5.41-3.33-8.91,0-2.91.87-5.54,2.62-7.87,1.75-2.33,4.17-4.21,7.27-5.63,3.1-1.42,6.72-2.13,10.88-2.13,5.47,0,9.98,1.08,13.55,3.22,3.57,2.15,6.08,5.38,7.54,9.67l-4.59,2.95c-1.09-3.86-3.12-6.67-6.07-8.42-2.95-1.75-6.43-2.62-10.44-2.62-3.06,0-5.74.46-8.03,1.37-2.3.91-4.08,2.15-5.36,3.72-1.28,1.57-1.91,3.37-1.91,5.41s.73,4.03,2.19,5.74c1.46,1.71,4.04,2.97,7.76,3.77l13.12,2.84c5.17,1.09,8.78,2.75,10.82,4.97,2.04,2.22,3.06,4.97,3.06,8.25s-.87,6.12-2.62,8.53c-1.75,2.4-4.23,4.25-7.43,5.52-3.21,1.27-6.96,1.91-11.26,1.91Z"/>
  </g>
</svg>